Coordinates
version=1
nRows=37
nColumns=38
inDegrees=no

Units are S.I. units (second, meters, Newtons, ...)
If the header above contains a line with 'inDegrees', this indicates whether rotational values are in degrees (yes) or radians (no).

endheader
time	pelvis_tilt	pelvis_list	pelvis_rotation	pelvis_tx	pelvis_ty	pelvis_tz	hip_flexion_r	hip_adduction_r	hip_rotation_r	knee_angle_r	ankle_angle_r	subtalar_angle_r	mtp_angle_r	hip_flexion_l	hip_adduction_l	hip_rotation_l	knee_angle_l	ankle_angle_l	subtalar_angle_l	mtp_angle_l	lumbar_extension	lumbar_bending	lumbar_rotation	arm_flex_r	arm_add_r	arm_rot_r	elbow_flex_r	pro_sup_r	wrist_flex_r	wrist_dev_r	arm_flex_l	arm_add_l	arm_rot_l	elbow_flex_l	pro_sup_l	wrist_flex_l	wrist_dev_l
1.33	-0.0748975	1.38851	-1.31989	0.677872	0.0942989	0.93698	0.160341	-0.00711455	-0.0643795	0.0540535	-0.330698	0	0	-0.432475	-0.0193129	-0.0517288	0.047914	-0.228278	0	0	-0.414819	0.12414	-0.150416	0.103704	-0.580407	1.147	0.759717	0.349332	0	0	-0.17115	-0.201171	-0.0625449	0.656099	1.45226	0	0
1.34	-0.0792649	1.38587	-1.31525	0.678098	0.0850564	0.936219	0.158113	-0.00184758	-0.0680989	0.0696613	-0.335559	0	0	-0.440274	-0.0232353	-0.0524438	0.0598153	-0.222769	0	0	-0.417633	0.12649	-0.150247	0.101725	-0.581785	1.14237	0.762935	0.350473	0	0	-0.171006	-0.201672	-0.0603435	0.656341	1.451	0	0
1.35	-0.0886915	1.38226	-1.30545	0.678275	0.0756641	0.935606	0.160814	0.00459365	-0.0782609	0.107823	-0.334911	0	0	-0.448257	-0.0286523	-0.0546693	0.0735219	-0.214332	0	0	-0.421488	0.130342	-0.149533	0.0980391	-0.584049	1.13379	0.767968	0.353266	0	0	-0.170841	-0.202136	-0.0576864	0.657159	1.44723	0	0
1.36	-0.100937	1.37954	-1.29284	0.678336	0.0659414	0.934997	0.163931	0.0117813	-0.0849337	0.14795	-0.327163	0	0	-0.455278	-0.0346771	-0.0571731	0.0869496	-0.209065	0	0	-0.42334	0.134326	-0.149595	0.0943353	-0.584707	1.12619	0.770417	0.356871	0	0	-0.171602	-0.202509	-0.0559855	0.656914	1.44344	0	0
1.37	-0.115325	1.37738	-1.27819	0.678295	0.0559759	0.934414	0.166729	0.0195215	-0.0897129	0.184942	-0.316035	0	0	-0.461284	-0.04125	-0.061031	0.101183	-0.205866	0	0	-0.424056	0.138307	-0.15014	0.0907747	-0.584577	1.11937	0.77167	0.360857	0	0	-0.17328	-0.203068	-0.0543344	0.656415	1.44116	0	0
1.38	-0.134632	1.37623	-1.25859	0.67818	0.0457603	0.933883	0.170085	0.0279753	-0.0936362	0.215237	-0.307392	0	0	-0.465228	-0.0487798	-0.065819	0.117078	-0.204107	0	0	-0.422965	0.142787	-0.150837	0.0875864	-0.584094	1.11508	0.771886	0.366539	0	0	-0.175312	-0.202935	-0.0539024	0.655077	1.43943	0	0
1.39	-0.158891	1.37631	-1.23328	0.678092	0.035235	0.933425	0.172724	0.0368865	-0.094595	0.233075	-0.30995	0	0	-0.466508	-0.0572855	-0.0706123	0.13494	-0.203669	0	0	-0.419389	0.147995	-0.152723	0.0845209	-0.582781	1.1127	0.770415	0.373055	0	0	-0.177722	-0.202353	-0.0544384	0.65182	1.43858	0	0
1.4	-0.186948	1.37749	-1.20354	0.678068	0.0244101	0.93305	0.174225	0.0459539	-0.092587	0.240307	-0.327008	0	0	-0.465034	-0.066462	-0.0747077	0.155241	-0.205281	0	0	-0.413524	0.153824	-0.156017	0.0808545	-0.580973	1.1094	0.767897	0.379508	0	0	-0.180426	-0.201078	-0.0562854	0.646638	1.43949	0	0
1.41	-0.213176	1.37782	-1.17674	0.677836	0.0135094	0.93278	0.172636	0.055586	-0.0855728	0.242029	-0.350068	0	0	-0.463289	-0.075619	-0.0797289	0.178024	-0.209116	0	0	-0.408799	0.158981	-0.159035	0.0778936	-0.579674	1.10675	0.766855	0.384065	0	0	-0.184833	-0.200157	-0.0593093	0.644251	1.44087	0	0
1.42	-0.240349	1.3791	-1.14777	0.677625	0.00219012	0.932485	0.168998	0.0650852	-0.078616	0.240031	-0.375807	0	0	-0.458895	-0.0856816	-0.083217	0.203986	-0.214856	0	0	-0.401784	0.164057	-0.16422	0.0742625	-0.57728	1.10443	0.764534	0.389503	0	0	-0.190556	-0.198672	-0.0646388	0.641609	1.44227	0	0
1.43	-0.266451	1.37995	-1.12024	0.677398	-0.00929685	0.932268	0.163218	0.0744706	-0.06909	0.237982	-0.394906	0	0	-0.453046	-0.0956439	-0.086379	0.232984	-0.222718	0	0	-0.394973	0.168908	-0.169528	0.0708699	-0.575796	1.10354	0.76335	0.394619	0	0	-0.197198	-0.19661	-0.0716094	0.640086	1.44348	0	0
1.44	-0.293276	1.38036	-1.09279	0.677115	-0.020923	0.932184	0.157195	0.083859	-0.0571438	0.239758	-0.406812	0	0	-0.445652	-0.105792	-0.0893112	0.264988	-0.234226	0	0	-0.388425	0.173624	-0.173859	0.0675859	-0.574646	1.10399	0.762214	0.399343	0	0	-0.204113	-0.194288	-0.0788997	0.638516	1.44567	0	0
1.45	-0.32536	1.38046	-1.06001	0.676854	-0.0327142	0.932273	0.152504	0.0936783	-0.0467208	0.24768	-0.410289	0	0	-0.435667	-0.11742	-0.090273	0.300815	-0.249951	0	0	-0.381114	0.179433	-0.177591	0.0641054	-0.573732	1.10546	0.760586	0.403721	0	0	-0.210175	-0.19154	-0.0857286	0.634848	1.44969	0	0
1.46	-0.36103	1.3788	-1.02379	0.676547	-0.04449	0.932665	0.14781	0.104725	-0.0398383	0.260292	-0.406715	0	0	-0.423851	-0.130921	-0.0889472	0.341079	-0.270764	0	0	-0.374732	0.186766	-0.180033	0.060137	-0.573628	1.10595	0.759678	0.406218	0	0	-0.215435	-0.188257	-0.092864	0.630812	1.45516	0	0
1.47	-0.397134	1.37531	-0.988118	0.676111	-0.0562616	0.933369	0.141956	0.116996	-0.0364193	0.274177	-0.399276	0	0	-0.410521	-0.145773	-0.0854429	0.385596	-0.298234	0	0	-0.369864	0.19481	-0.180446	0.0557999	-0.574538	1.10598	0.760169	0.407353	0	0	-0.220156	-0.18494	-0.0999785	0.626712	1.46273	0	0
1.48	-0.429787	1.37091	-0.957404	0.675571	-0.067992	0.93428	0.135073	0.129236	-0.0366393	0.287816	-0.390903	0	0	-0.395245	-0.160622	-0.0787954	0.434506	-0.333057	0	0	-0.366287	0.202455	-0.179506	0.051982	-0.577037	1.10675	0.763079	0.407945	0	0	-0.225313	-0.181144	-0.108482	0.624466	1.47055	0	0
1.49	-0.456964	1.3664	-0.933508	0.674904	-0.0795841	0.935223	0.126803	0.140434	-0.0391198	0.29925	-0.381667	0	0	-0.377029	-0.174422	-0.0670624	0.489279	-0.372989	0	0	-0.363713	0.20878	-0.178015	0.0492478	-0.580791	1.10897	0.768331	0.408017	0	0	-0.231665	-0.177239	-0.118684	0.624768	1.47886	0	0
1.5	-0.478969	1.36274	-0.916335	0.674092	-0.0910339	0.936051	0.117178	0.150066	-0.0414471	0.307305	-0.372099	0	0	-0.354631	-0.185962	-0.0534325	0.551116	-0.415478	0	0	-0.361374	0.213206	-0.176222	0.047687	-0.585008	1.11255	0.774823	0.406935	0	0	-0.239524	-0.173471	-0.130389	0.627798	1.48732	0	0
1.51	-0.498605	1.35996	-0.90287	0.67322	-0.102322	0.936646	0.107155	0.158189	-0.0433348	0.314043	-0.361057	0	0	-0.327951	-0.195526	-0.0416499	0.620016	-0.458702	0	0	-0.35905	0.216377	-0.174118	0.047365	-0.590172	1.11788	0.78287	0.404789	0	0	-0.248688	-0.169626	-0.143193	0.633594	1.49483	0	0
1.52	-0.515975	1.35715	-0.892403	0.672358	-0.113349	0.936994	0.0967832	0.165395	-0.0457492	0.321263	-0.34909	0	0	-0.298292	-0.2038	-0.0320872	0.693583	-0.498648	0	0	-0.357641	0.218991	-0.171471	0.0478901	-0.597075	1.12409	0.793612	0.402375	0	0	-0.25902	-0.166553	-0.154362	0.642622	1.5002	0	0
1.53	-0.533573	1.35456	-0.881808	0.67154	-0.124053	0.937097	0.087778	0.171888	-0.049898	0.331223	-0.334837	0	0	-0.265656	-0.211551	-0.0249801	0.76863	-0.536069	0	0	-0.356739	0.221654	-0.169013	0.0494337	-0.605001	1.13044	0.805757	0.398063	0	0	-0.269759	-0.163403	-0.165791	0.653422	1.5048	0	0
1.54	-0.553305	1.35165	-0.868762	0.670828	-0.134392	0.937087	0.0795986	0.178702	-0.0554538	0.342133	-0.319893	0	0	-0.230814	-0.219842	-0.0186219	0.843935	-0.567238	0	0	-0.356535	0.225115	-0.165563	0.0516066	-0.613358	1.13738	0.817994	0.392438	0	0	-0.279254	-0.160269	-0.175939	0.663996	1.50962	0	0
1.55	-0.573777	1.34803	-0.85446	0.670201	-0.14441	0.93708	0.0694978	0.186297	-0.0613518	0.347341	-0.309409	0	0	-0.195356	-0.229039	-0.0116609	0.918137	-0.590306	0	0	-0.357145	0.229293	-0.160902	0.0538378	-0.621475	1.14419	0.829412	0.387452	0	0	-0.287332	-0.157899	-0.183146	0.674154	1.51339	0	0
1.56	-0.58956	1.34375	-0.844225	0.669636	-0.154219	0.937273	0.0562171	0.194058	-0.0651322	0.346822	-0.302666	0	0	-0.161096	-0.237897	-0.00436165	0.988208	-0.608601	0	0	-0.359061	0.233369	-0.155839	0.0560893	-0.628685	1.15037	0.839265	0.383082	0	0	-0.294043	-0.155737	-0.188794	0.684186	1.51577	0	0
1.57	-0.596984	1.33867	-0.84123	0.669157	-0.163796	0.937722	0.0394654	0.201441	-0.0652143	0.34276	-0.295914	0	0	-0.128367	-0.24588	0.00238695	1.05511	-0.628108	0	0	-0.363409	0.23676	-0.15109	0.0588416	-0.635263	1.15634	0.848786	0.377569	0	0	-0.300049	-0.153995	-0.194003	0.69509	1.51761	0	0
1.58	-0.591873	1.33304	-0.850213	0.668675	-0.17315	0.93856	0.0187059	0.207296	-0.0612964	0.335955	-0.289604	0	0	-0.098857	-0.251641	0.00822024	1.11593	-0.643059	0	0	-0.370328	0.237993	-0.146118	0.0614617	-0.63979	1.16095	0.855872	0.372885	0	0	-0.30452	-0.153591	-0.197136	0.705097	1.51876	0	0
1.59	-0.580157	1.32744	-0.865135	0.668109	-0.182312	0.939616	-0.00476868	0.21211	-0.0543029	0.325817	-0.283455	0	0	-0.0709374	-0.255849	0.0143309	1.17042	-0.64867	0	0	-0.378556	0.237482	-0.141619	0.0645724	-0.642472	1.1658	0.860889	0.367753	0	0	-0.308315	-0.15418	-0.199535	0.714946	1.51961	0	0
1.6	-0.566538	1.32249	-0.881836	0.66749	-0.191327	0.940772	-0.0291489	0.215974	-0.0462026	0.313043	-0.278633	0	0	-0.0439073	-0.25892	0.0203931	1.21875	-0.638995	0	0	-0.386657	0.235742	-0.137443	0.0679981	-0.643636	1.17041	0.863746	0.361968	0	0	-0.311152	-0.15472	-0.201986	0.723711	1.51958	0	0
1.61	-0.551885	1.31779	-0.899921	0.66682	-0.200151	0.94197	-0.054274	0.219174	-0.036931	0.297645	-0.275758	0	0	-0.0177881	-0.261326	0.0248168	1.26195	-0.611477	0	0	-0.395059	0.233155	-0.133684	0.0729998	-0.643694	1.17676	0.865246	0.354125	0	0	-0.313573	-0.15532	-0.204742	0.731923	1.51913	0	0
1.62	-0.538144	1.31274	-0.917686	0.666126	-0.208799	0.943272	-0.0815505	0.222893	-0.0241974	0.275633	-0.277316	0	0	0.00708898	-0.263771	0.0275959	1.30065	-0.565295	0	0	-0.403908	0.230596	-0.130141	0.0808464	-0.642982	1.18761	0.865125	0.342967	0	0	-0.315267	-0.1558	-0.2075	0.738713	1.51847	0	0
1.63	-0.522836	1.31023	-0.937489	0.665435	-0.217447	0.944387	-0.103213	0.223295	-0.0191342	0.262874	-0.278207	0	0	0.0329886	-0.263103	0.0291246	1.33253	-0.532669	0	0	-0.410048	0.226057	-0.126932	0.0874175	-0.641366	1.19677	0.863632	0.334574	0	0	-0.315747	-0.156446	-0.209081	0.742296	1.51796	0	0
1.64	-0.505753	1.30844	-0.959443	0.664781	-0.226002	0.945526	-0.123988	0.222354	-0.0153372	0.250946	-0.278513	0	0	0.0581404	-0.260478	0.0295703	1.35775	-0.503361	0	0	-0.415765	0.220394	-0.123589	0.0941773	-0.639379	1.20628	0.861349	0.326815	0	0	-0.315222	-0.157	-0.210346	0.744249	1.51695	0	0
1.65	-0.485103	1.30712	-0.985875	0.664105	-0.234349	0.946724	-0.144007	0.219645	-0.0103251	0.240545	-0.278536	0	0	0.0819253	-0.255725	0.0283537	1.37622	-0.478614	0	0	-0.421938	0.21333	-0.119748	0.101373	-0.637178	1.21581	0.858864	0.319686	0	0	-0.313778	-0.15773	-0.211091	0.745239	1.51553	0	0
1.66	-0.459697	1.30568	-1.01853	0.663365	-0.242373	0.947999	-0.163776	0.214993	-0.00203018	0.231912	-0.278488	0	0	0.103547	-0.249175	0.0245091	1.38803	-0.458016	0	0	-0.429689	0.204642	-0.115237	0.109673	-0.635049	1.22525	0.856784	0.31239	0	0	-0.311683	-0.158761	-0.2114	0.746245	1.51331	0	0
1.67	-0.431217	1.30482	-1.05356	0.6627	-0.250373	0.94926	-0.182911	0.208815	0.00504177	0.223954	-0.277906	0	0	0.124097	-0.240791	0.0203618	1.39342	-0.438908	0	0	-0.43664	0.194942	-0.112174	0.118063	-0.632113	1.23477	0.853693	0.305161	0	0	-0.309441	-0.160351	-0.211071	0.746412	1.51082	0	0
1.68	-0.401473	1.30444	-1.08902	0.662111	-0.258336	0.95044	-0.200895	0.201718	0.00984836	0.217272	-0.275917	0	0	0.143931	-0.231182	0.0156344	1.39279	-0.41997	0	0	-0.442751	0.184778	-0.109939	0.126323	-0.628547	1.24463	0.849623	0.29849	0	0	-0.307213	-0.162349	-0.210101	0.746495	1.50877	0	0
1.69	-0.374048	1.30469	-1.12162	0.661613	-0.26617	0.951417	-0.216691	0.194531	0.0132665	0.212296	-0.273185	0	0	0.163922	-0.221262	0.0105107	1.38719	-0.400091	0	0	-0.44784	0.175008	-0.107886	0.134504	-0.625089	1.2545	0.845391	0.292146	0	0	-0.304471	-0.164474	-0.208547	0.746181	1.50648	0	0
